<svg width="35" height="35" viewBox="0 0 35 35" fill="none" xmlns="http://www.w3.org/2000/svg">
<g filter="url(#filter0_d_158_2647)">
<circle cx="17.5" cy="17.5" r="17.5" transform="rotate(-90 17.5 17.5)" fill="#F5F5F5"/>
</g>
<path d="M30.2285 19.0909C31.1072 19.0909 31.8194 18.3786 31.8194 17.5C31.8194 16.6214 31.1072 15.9091 30.2285 15.9091V19.0909ZM5.23994 16.3751C4.61865 16.9963 4.61865 18.0037 5.23994 18.6249L15.3644 28.7494C15.9857 29.3707 16.993 29.3707 17.6143 28.7494C18.2356 28.1281 18.2356 27.1208 17.6143 26.4995L8.61477 17.5L17.6143 8.50046C18.2356 7.87917 18.2356 6.87186 17.6143 6.25057C16.993 5.62928 15.9857 5.62928 15.3644 6.25057L5.23994 16.3751ZM30.2285 17.5V15.9091L6.36488 15.9091V17.5V19.0909L30.2285 19.0909V17.5Z" fill="#E81C23"/>
<defs>
<filter id="filter0_d_158_2647" x="-4" y="0" width="43" height="43" filterUnits="userSpaceOnUse" color-interpolation-filters="sRGB">
<feFlood flood-opacity="0" result="BackgroundImageFix"/>
<feColorMatrix in="SourceAlpha" type="matrix" values="0 0 0 0 0 0 0 0 0 0 0 0 0 0 0 0 0 0 127 0" result="hardAlpha"/>
<feOffset dy="4"/>
<feGaussianBlur stdDeviation="2"/>
<feComposite in2="hardAlpha" operator="out"/>
<feColorMatrix type="matrix" values="0 0 0 0 0 0 0 0 0 0 0 0 0 0 0 0 0 0 0.25 0"/>
<feBlend mode="normal" in2="BackgroundImageFix" result="effect1_dropShadow_158_2647"/>
<feBlend mode="normal" in="SourceGraphic" in2="effect1_dropShadow_158_2647" result="shape"/>
</filter>
</defs>
</svg>
