<svg width="35" height="36" viewBox="0 0 35 36" fill="none" xmlns="http://www.w3.org/2000/svg">
<g filter="url(#filter0_d_158_2643)">
<circle cx="17.5" cy="17.6289" r="17.5" transform="rotate(90 17.5 17.6289)" fill="#F5F5F5"/>
<path d="M4.77148 16.038C3.89285 16.038 3.18058 16.7503 3.18058 17.6289C3.18058 18.5075 3.89285 19.2198 4.77148 19.2198V16.038ZM29.7601 18.7538C30.3814 18.1326 30.3814 17.1253 29.7601 16.504L19.6356 6.37948C19.0143 5.75819 18.007 5.75819 17.3857 6.37948C16.7644 7.00077 16.7644 8.00808 17.3857 8.62936L26.3852 17.6289L17.3857 26.6284C16.7644 27.2497 16.7644 28.257 17.3857 28.8783C18.007 29.4996 19.0143 29.4996 19.6356 28.8783L29.7601 18.7538ZM4.77148 17.6289V19.2198H28.6351V17.6289V16.038H4.77148V17.6289Z" fill="#E81C23"/>
</g>
<defs>
<filter id="filter0_d_158_2643" x="-4.72928" y="0.128906" width="44.4586" height="44.4586" filterUnits="userSpaceOnUse" color-interpolation-filters="sRGB">
<feFlood flood-opacity="0" result="BackgroundImageFix"/>
<feColorMatrix in="SourceAlpha" type="matrix" values="0 0 0 0 0 0 0 0 0 0 0 0 0 0 0 0 0 0 127 0" result="hardAlpha"/>
<feOffset dy="4.72928"/>
<feGaussianBlur stdDeviation="2.36464"/>
<feComposite in2="hardAlpha" operator="out"/>
<feColorMatrix type="matrix" values="0 0 0 0 0 0 0 0 0 0 0 0 0 0 0 0 0 0 0.25 0"/>
<feBlend mode="normal" in2="BackgroundImageFix" result="effect1_dropShadow_158_2643"/>
<feBlend mode="normal" in="SourceGraphic" in2="effect1_dropShadow_158_2643" result="shape"/>
</filter>
</defs>
</svg>
