<svg width="207" height="80" viewBox="0 0 207 80" fill="none" xmlns="http://www.w3.org/2000/svg">
<path d="M189.247 46.8224C187.559 49.1503 187.001 51.708 187.584 54.4296C187.987 56.3133 189.392 57.4851 191.345 57.567C192.239 57.6048 193.181 57.5229 194.092 57.441L194.196 57.4315C194.432 57.4126 194.712 57.3024 195.011 57.189L195.141 57.1386C195.752 56.9149 195.985 56.6157 196.038 55.9983L196.045 55.9479C196.045 55.9479 196.045 55.9353 196.045 55.9196C196.064 55.7054 196.086 55.488 196.114 55.2707L193.736 55.236C192.847 55.2234 192.006 54.8706 191.424 54.269C190.917 53.7429 190.642 53.0688 190.655 52.3664L190.671 51.497C190.699 49.9409 192.132 48.6872 193.852 48.725L205.476 48.8636L205.356 49.7708C205.29 50.2685 205.198 51.0119 205.11 51.7616C204.981 52.8105 204.861 53.8028 204.789 54.2627C204.748 54.5273 204.704 54.7856 204.66 55.0502L204.534 55.8282C204.364 56.8582 204.19 57.9261 204.042 58.9719C203.938 59.6901 203.655 60.2949 203.176 60.8178C200.842 63.3724 197.824 65.023 194.211 65.7254C193.024 65.9554 191.899 66.0719 190.828 66.0719C189.486 66.0719 188.226 65.8892 187.026 65.5238C182.572 64.163 179.797 61.1201 178.773 56.4802C177.995 52.9649 178.462 49.3739 180.163 45.8082C182.446 41.0139 186.056 37.8009 190.888 36.2575C193.852 35.3125 196.712 35.2873 199.39 36.1819C202.647 37.2654 204.836 39.4169 205.904 42.5731C205.958 42.7306 206.002 42.8976 206.052 43.0866L206.276 43.9308L205.728 44.2269C203.595 45.3829 201.526 46.5043 199.409 47.6477L198.687 48.0383L198.221 47.0839C198.133 46.9106 198.057 46.7531 197.985 46.5925C197.349 45.1435 196.275 44.4159 194.599 44.2993C192.372 44.145 190.567 44.9923 189.244 46.8224H189.247Z" fill="white"/>
<path d="M75.9437 41.5469C75.9343 43.0557 75.887 44.5898 75.8429 46.0702C75.8272 46.612 75.8083 47.1538 75.7925 47.6956C75.6665 52.345 75.5374 56.9943 75.4082 61.6405C75.3862 62.3146 75.361 62.9887 75.3326 63.6786L75.2665 65.4173H66.497L67.3475 49.6203L67.0514 50.3321C65.5772 53.8633 64.0558 57.5109 62.5406 61.0924C62.1784 61.9492 61.7878 62.6391 61.3405 63.1998C60.1089 64.7558 58.4677 65.5591 56.5525 65.5591C56.1556 65.5591 55.7462 65.5244 55.3241 65.4551C53.2577 65.1118 51.8465 63.5715 51.6354 61.4358C51.459 59.6309 51.2984 57.7944 51.1409 56.0178C51.0716 55.2272 51.0023 54.4366 50.9299 53.6459L50.8889 53.1671C50.7724 51.8725 50.6558 50.5778 50.5393 49.2832L45.8836 65.411H37.0605L37.385 64.1605C37.4322 63.9715 37.4763 63.8046 37.5267 63.6376L38.5221 60.4026C40.4688 54.0806 42.4123 47.7555 44.3716 41.4398C44.6394 40.5767 44.9197 39.8963 45.2568 39.2978C46.7152 36.7148 49.0178 35.4485 52.1111 35.5273C52.6907 35.543 53.264 35.6249 53.8215 35.773C55.8533 36.3085 57.1164 37.6882 57.4786 39.7609C57.6015 40.4664 57.6582 41.1783 57.7117 41.865L57.7401 42.243C57.9669 45.0811 58.1937 47.9224 58.4173 50.7637L58.5087 51.9229L59.1481 50.329C60.427 47.1412 61.7027 43.9566 62.9879 40.7751C63.284 40.0444 63.5675 39.4711 63.8825 38.9671C65.8701 35.7824 69.5997 35.0674 72.2236 35.7478C73.9813 36.2045 75.1626 37.3543 75.635 39.0742C75.8429 39.8302 75.9469 40.6617 75.9437 41.5469Z" fill="white"/>
<path d="M178.511 36.1574L178.246 37.9119C178.155 38.5072 178.067 39.09 177.975 39.6727C177.487 42.703 177.002 45.7333 176.514 48.7604L175.849 52.9026C175.72 53.709 175.591 54.5122 175.465 55.3186C175.184 57.0637 174.907 58.8088 174.617 60.5507C174.186 63.1589 172.775 64.904 170.422 65.7419C169.814 65.9592 169.187 66.0663 168.551 66.0663C167.842 66.0663 167.12 65.934 166.39 65.6694C165.24 65.2505 164.386 64.4063 163.854 63.162C162.811 60.7271 161.762 58.2922 160.71 55.8604L158.738 51.2835C158.606 50.9717 158.471 50.663 158.338 50.3543L155.916 65.4143H147.635L147.805 64.1039C147.843 63.8078 147.88 63.5211 147.925 63.2345C148.463 59.8861 149.002 56.5377 149.54 53.1892L150.051 50.0078C150.202 49.0754 150.35 48.1461 150.498 47.2169C150.835 45.1001 151.185 42.9141 151.544 40.7626C152.001 38.0285 154.026 35.9778 156.707 35.5368C157.847 35.3478 158.972 35.499 160.052 35.9873C161.032 36.4283 161.756 37.1906 162.213 38.2584C162.934 39.9405 163.659 41.6194 164.386 43.3015L165.171 45.119C166.034 47.113 166.894 49.1069 167.754 51.1008C168.242 48.269 168.702 45.4214 169.149 42.6463C169.464 40.7028 169.779 38.7592 170.1 36.8157L170.211 36.1574H178.511Z" fill="white"/>
<path d="M137.675 36.1553L137.206 37.409C137.149 37.5633 137.099 37.7051 137.036 37.8437C134.282 43.9829 131.523 50.1254 128.767 56.2678L127.138 59.8997C126.53 61.2511 125.951 62.2339 125.261 63.0875C123.642 65.0877 121.591 66.0957 119.144 66.0957C118.482 66.0957 117.796 66.0233 117.077 65.8752C115.528 65.5571 114.346 64.6373 113.562 63.1473C113.074 62.2213 112.765 61.1534 112.592 59.7895C112.264 57.2412 111.943 54.6897 111.618 52.1414C111.389 50.3018 111.155 48.4622 110.922 46.6226C110.718 45.035 110.513 43.4443 110.305 41.8567C110.125 40.4613 109.946 39.069 109.766 37.6736C109.741 37.4814 109.747 37.3019 109.754 37.1444C109.754 37.0814 109.757 37.0184 109.757 36.9522V36.1647H118.451L118.92 40.1778C119.194 42.5025 119.465 44.8271 119.736 47.1487L119.919 48.7205C120.152 50.7333 120.388 52.7934 120.665 54.8503C120.908 54.3085 121.144 53.7636 121.374 53.2281C121.541 52.8407 121.711 52.4532 121.881 52.0689C122.366 50.9633 122.845 49.8545 123.324 48.7425C123.582 48.1441 123.84 47.5424 124.099 46.9439C124.511 45.9958 124.924 45.0508 125.333 44.1058L128.786 36.1553H137.675Z" fill="white"/>
<path d="M145.62 50.5727C144.848 55.4457 143.484 63.9348 143.248 64.8168L143.094 65.4027H134.989L134.797 64.8924C134.693 64.6089 134.62 64.4231 136.813 50.8499C137.862 44.3546 139.03 37.305 139.137 36.7821L139.27 36.1553H147.557L147.642 36.8483C147.658 36.9774 147.705 37.3743 145.62 50.5727Z" fill="white"/>
<path d="M108.315 47.9959C106.913 39.8028 98.9057 34.2022 90.7095 35.7677C85.8585 36.6938 82.2297 39.3775 79.9681 43.7654C78.0875 47.4163 77.7316 51.2561 79.105 55.1778C80.0059 57.7482 81.3509 60.1106 82.6424 62.4857C84.0032 64.9994 85.4774 67.4406 87.0303 69.8346L68.2785 70.2787L87.6225 70.7449C88.3029 71.7813 88.999 72.8144 89.7046 73.835L63.6796 74.38L90.4795 74.947C90.7976 75.4069 91.1189 75.8636 91.4434 76.3204C91.8056 76.8307 92.171 77.341 92.5459 77.8544L58.8633 78.4812L93.4751 79.1301C93.6011 78.9695 93.6767 78.8907 93.7397 78.8025C94.6438 77.5331 95.5636 76.2731 96.4455 74.9942C100.389 69.2802 104.015 63.3834 106.976 57.0835C108.346 54.1666 108.863 51.1899 108.318 47.999L108.315 47.9959ZM93.4499 58.9987C88.8667 59.0333 85.112 55.2786 85.0931 50.645C85.071 46.0901 88.8069 42.3039 93.3491 42.2818C97.9418 42.2566 101.737 45.983 101.756 50.5442C101.782 55.2093 98.093 58.9609 93.4499 58.9987Z" fill="#D93933"/>
<path d="M8.75583 44.4963C8.75583 44.4963 5.31291 45.6492 7.36354 42.6064L5.22156 41.759L6.96665 40.2754C6.96665 40.2754 4.28602 39.532 5.86731 37.6483L4.62937 37.0152C4.62937 37.0152 6.40595 36.486 6.02481 35.3835L9.17162 33.5187C9.32282 33.4305 9.30392 33.2069 9.14327 33.1407L6.89105 32.2461L7.97149 31.3988C8.10063 31.298 8.06913 31.0932 7.91479 31.0365C6.5036 30.5199 1.5361 28.5512 4.72387 27.3857C4.72387 27.3857 0.304465 25.4264 3.39773 24.22L100.168 0.210938L100.253 0.500735L97.9314 2.95141L100.168 3.62235L98.133 5.57848L100.514 6.12343L98.4764 8.02916L99.9694 8.13311L96.7974 10.4987L98.5551 11.0216L98.1897 11.3146L101.667 11.8343L100.713 12.6502L103.595 13.3463L102.146 14.4173L105.11 15.5513L103.485 16.7798L106.417 17.2995L104.839 18.2508L107.022 19.054L106.266 19.6179L106.953 19.9297L8.75583 44.4963Z" fill="#3C3D3D"/>
<path d="M7.39255 44.343C7.39255 44.343 3.94963 45.4959 6.00026 42.453L3.85828 41.6057L5.60336 40.1221C5.60336 40.1221 2.92274 39.3787 4.50403 37.495L3.26609 36.8618C3.26609 36.8618 5.04267 36.3326 4.66152 35.2302L7.80834 33.3654C7.95954 33.2772 7.94064 33.0535 7.77999 32.9874L5.52777 32.0928L6.6082 31.2454C6.73735 31.1446 6.70585 30.9399 6.55151 30.8832C5.14032 30.3666 0.172821 28.3979 3.36059 27.2324C3.36059 27.2324 -1.05882 25.2731 2.03445 24.0667L98.8046 0.0576172L98.8897 0.347414L96.5681 2.79809L98.8046 3.46903L96.7697 5.42516L99.1511 5.97011L97.1131 7.87584L98.6062 7.97979L95.4341 10.3454L97.1918 10.8683L96.8264 11.1613L100.304 11.681L99.3495 12.4968L102.232 13.193L100.783 14.264L103.747 15.398L102.122 16.6264L105.054 17.1462L103.476 18.0975L105.659 18.9007L104.903 19.4646L105.59 19.7764L7.39255 44.343Z" fill="#F6E8B5"/>
<path d="M73.8451 16.239V16.2453C73.8734 16.7588 73.9553 17.877 73.9679 18.2235C73.9711 18.34 73.9742 18.4534 73.9774 18.57C73.9931 19.1527 74.0026 19.7355 74.0309 20.3182C74.0404 20.5639 73.99 20.7781 73.8608 20.986C73.0702 22.2649 71.9488 23.1406 70.566 23.6887C69.621 24.0667 68.6413 24.2777 67.6208 24.1643C65.6961 23.9533 64.3637 22.9138 63.6109 21.1498C62.9872 19.6945 62.9557 18.1794 63.3557 16.6643C63.9101 14.5664 65.1008 12.9379 67.0286 11.8952C68.0996 11.3156 69.2493 11.0416 70.4715 11.2085C71.8228 11.3912 72.8655 12.0559 73.5427 13.2591C73.59 13.3442 73.6277 13.4324 73.6844 13.5489C72.8592 14.2199 72.0591 14.8719 71.2432 15.5366C71.1676 15.4358 71.1046 15.3539 71.0448 15.2688C70.5691 14.5727 69.9045 14.3144 69.076 14.412C67.9641 14.5443 67.1703 15.1365 66.7041 16.1319C66.134 17.3384 66.0804 18.5857 66.6033 19.8237C66.9939 20.7592 67.8444 21.2223 68.8461 21.0742C69.2713 21.0112 69.6903 20.8915 70.1061 20.775C70.273 20.7277 70.4242 20.6269 70.5754 20.5356C70.9093 20.334 71.0763 20.0725 71.0322 19.641C71.0322 19.6315 71.0322 19.6252 71.0322 19.6158C71.0227 19.5055 71.0133 19.3921 71.007 19.2819C71.0007 19.1716 70.9944 19.0582 70.9881 18.948L70.944 18.9574L69.58 19.1937C69.0225 19.2913 68.5028 18.9763 68.4177 18.4912L68.3547 18.1164C68.2728 17.6313 68.6571 17.1588 69.2178 17.0612L73.7915 16.2485L73.8514 16.239H73.8451Z" fill="#D93933"/>
<path d="M29.6919 30.0404C30.4952 30.2641 31.2921 30.4846 32.1048 30.7114C31.3645 32.4564 30.2117 33.7511 28.4288 34.4315C27.7673 34.6835 27.0837 34.8126 26.3782 34.8063C24.526 34.7874 23.2817 33.6503 22.9951 31.8359C22.5635 29.0954 23.9747 26.3424 26.438 25.0414C27.1656 24.6571 27.9437 24.4366 28.769 24.4051C30.2463 24.3484 31.4118 25.1611 31.8874 26.5629C32.152 27.3472 32.1615 28.1536 32.1268 28.9663C32.1268 29.0324 31.9914 29.1238 31.9032 29.1458C30.5645 29.4986 29.2257 29.842 27.887 30.1885C27.3168 30.3365 26.7498 30.4877 26.1797 30.6263C25.9844 30.6736 25.9529 30.7492 26.0222 30.9319C26.3876 31.9052 27.2916 31.965 28.0413 31.6753C28.8131 31.3823 29.2257 30.9539 29.6951 30.0404H29.6919ZM28.9737 28.1504C28.832 27.6748 28.4603 27.4007 27.9689 27.4322C27.1152 27.4826 26.5545 27.9583 26.1892 28.7017C26.1671 28.7489 26.164 28.8056 26.1451 28.8844C27.0995 28.6387 28.0256 28.3993 28.9706 28.1536L28.9737 28.1504Z" fill="#D93933"/>
<path d="M82.2468 16.418C83.028 16.6354 83.8218 16.8559 84.6376 17.0827C83.9037 18.8183 82.7571 20.1066 80.9868 20.7933C80.319 21.0516 79.626 21.1839 78.911 21.1776C77.0619 21.1587 75.8145 20.0279 75.5247 18.2072C75.0901 15.4636 76.517 12.6885 78.9866 11.397C79.7079 11.019 80.4765 10.8048 81.2955 10.7733C82.7728 10.7166 83.9383 11.5293 84.414 12.931C84.6786 13.7154 84.6912 14.5218 84.6534 15.3313C84.6534 15.3974 84.5179 15.4888 84.4329 15.514C83.6076 15.7376 82.776 15.9487 81.9475 16.1629C80.8765 16.4401 79.8056 16.7204 78.7314 16.9882C78.5172 17.0417 78.4731 17.1142 78.555 17.3252C78.9141 18.2482 79.7709 18.3332 80.5395 18.0592C81.2577 17.804 81.7648 17.3032 82.105 16.6291C82.1365 16.5661 82.168 16.5062 82.1995 16.4464C82.2027 16.4401 82.2121 16.4369 82.2373 16.418H82.2468ZM78.6842 15.2431C79.6386 14.9974 80.571 14.7549 81.5034 14.5155C81.3805 14.0965 81.0844 13.854 80.6592 13.8067C79.8528 13.7185 78.8826 14.4147 78.6842 15.2431Z" fill="#D93933"/>
<path d="M16.3822 24.6289C16.357 27.8356 16.3318 31.0013 16.3067 34.208C18.0738 33.7512 19.8094 33.3039 21.5954 32.8409C21.5891 33.9371 21.5797 34.9892 21.5734 36.0475C21.4978 36.0727 21.4348 36.0948 21.3686 36.1137C19.5102 36.5956 17.6517 37.0776 15.7901 37.5501C15.5255 37.6162 15.2451 37.6603 14.9711 37.6698C13.8654 37.7202 13.1567 37.1343 13.0937 36.0255C13.0338 34.9955 13.059 33.9591 13.0653 32.9291C13.0779 30.5256 13.1063 28.1254 13.1189 25.7219C13.1189 25.5298 13.1724 25.451 13.3583 25.4069C14.3568 25.1581 15.3522 24.8967 16.3854 24.6289H16.3822Z" fill="#D93933"/>
<path d="M34.7537 25.7558C34.234 25.8912 33.7615 26.0109 33.248 26.1432C33.2512 25.6361 33.2543 25.1573 33.2575 24.6785C33.2575 24.3099 33.2732 23.9382 33.2606 23.5697C33.2543 23.3807 33.311 23.2925 33.5032 23.2547C33.8497 23.1823 34.1899 23.072 34.5332 22.9964C34.7191 22.9555 34.7852 22.8767 34.7821 22.6846C34.7758 22.0388 34.7821 21.3931 34.801 20.7473C34.801 20.6654 34.886 20.53 34.9553 20.5111C35.9161 20.2496 36.88 20.0071 37.8407 19.7582C37.8722 19.7488 37.9068 19.7582 37.9635 19.7551C37.9604 20.5331 37.9572 21.2986 37.9541 22.105C38.9463 21.8498 39.8882 21.6041 40.8584 21.3553C40.8521 22.2814 40.8489 23.176 40.83 24.0674C40.83 24.1272 40.704 24.2123 40.6221 24.2343C39.8126 24.4517 39.003 24.669 38.1872 24.8612C37.973 24.9116 37.9226 25.0061 37.9226 25.2108C37.9289 25.9605 37.9163 26.7071 37.9131 27.4568C37.9131 27.5418 37.9194 27.63 37.932 27.7151C38.0328 28.386 38.4675 28.7199 39.1259 28.534C39.6173 28.3954 40.0772 28.1371 40.5465 27.9293C40.6253 27.8946 40.6914 27.8379 40.7922 27.7749C40.7985 27.86 40.8048 27.923 40.8048 27.986C40.8017 28.8301 40.7922 29.6743 40.7922 30.5154C40.7922 30.676 40.7481 30.7894 40.6064 30.8776C39.548 31.5297 38.4077 31.8825 37.1603 31.7785C36.0326 31.684 35.2483 30.9973 34.9301 29.9137C34.6876 29.0853 34.738 28.2411 34.7411 27.4001C34.7411 26.8677 34.7474 26.3354 34.7506 25.7558H34.7537Z" fill="#D93933"/>
<path d="M93.3771 7.72584C93.3708 8.64249 93.3583 9.51188 93.3614 10.3813C93.3614 10.5482 93.2701 10.5766 93.1441 10.6081C92.3219 10.816 91.5029 11.0365 90.6808 11.2381C90.4949 11.2822 90.4351 11.3609 90.4382 11.5499C90.4445 12.3059 90.4319 13.065 90.4288 13.821C90.4288 13.9061 90.4351 13.9943 90.4477 14.0793C90.5485 14.7534 90.9832 15.0873 91.6384 14.9015C92.1298 14.7629 92.5897 14.5077 93.059 14.2967C93.1377 14.262 93.2039 14.2053 93.3016 14.1423C93.311 14.2148 93.3205 14.2683 93.3205 14.3219C93.3173 15.1755 93.3078 16.026 93.3078 16.8797C93.3078 17.0403 93.2669 17.1537 93.1252 17.245C92.0762 17.8939 90.9422 18.2467 89.7043 18.1522C88.5545 18.0672 87.7576 17.3679 87.4395 16.2623C87.2032 15.4433 87.2536 14.6085 87.2568 13.7738C87.2568 13.3076 87.2631 12.8445 87.2662 12.3783C87.2662 12.3027 87.2568 12.2303 87.2505 12.1295C86.7528 12.2586 86.2771 12.3815 85.7637 12.5138C85.7637 12.0476 85.7637 11.6129 85.7668 11.1782C85.7668 10.7813 85.7889 10.3844 85.77 9.99067C85.7574 9.74182 85.8487 9.64418 86.0881 9.60008C86.3937 9.54338 86.6898 9.43628 86.9953 9.37643C87.2158 9.33233 87.304 9.24728 87.2977 9.00158C87.282 8.37474 87.3072 7.74474 87.3072 7.1179C87.3072 6.973 87.345 6.90055 87.4899 6.86275C88.438 6.62336 89.383 6.37766 90.328 6.13196C90.3689 6.12251 90.4099 6.12251 90.4792 6.11621C90.476 6.8974 90.4729 7.666 90.4697 8.47554C90.9926 8.34009 91.4683 8.21724 91.9439 8.09439C92.4133 7.97469 92.8795 7.85184 93.3771 7.72269V7.72584Z" fill="#D93933"/>
<path d="M53.0392 21.4747C52.5887 20.8825 51.9461 20.7345 51.3193 21.0652C51.1933 21.1314 51.0736 21.2353 50.9917 21.3487C50.7838 21.6385 50.894 21.9441 51.2468 21.9787C51.6469 22.0197 52.0564 21.9913 52.4596 21.9976C52.9321 22.0039 53.4109 21.9756 53.8802 22.0354C54.9764 22.1803 55.5182 22.8198 55.5497 23.9191C55.578 24.8893 55.2473 25.7366 54.6267 26.4643C53.3573 27.9542 51.7067 28.6283 49.7726 28.6063C48.7993 28.5968 48.037 28.1464 47.5078 27.277C48.2638 26.6281 49.0229 25.9823 49.801 25.3146C50.012 25.617 50.2703 25.8374 50.6389 25.8721C51.0799 25.9162 51.4957 25.8122 51.8894 25.6169C51.9587 25.5823 52.0249 25.5413 52.0847 25.491C52.2706 25.3366 52.4312 25.1539 52.3493 24.8925C52.2706 24.6468 52.0343 24.6373 51.8296 24.6405C51.2248 24.6499 50.6231 24.6877 50.0183 24.6972C49.7789 24.7003 49.5332 24.6814 49.297 24.6405C48.3142 24.4735 47.785 23.8719 47.7252 22.8765C47.6401 21.4401 48.2512 20.3156 49.3379 19.4367C50.4152 18.5642 51.6626 18.12 53.0549 18.1641C53.94 18.1925 54.6708 18.5516 55.1874 19.2981C55.2914 19.4462 55.2914 19.5344 55.1433 19.6604C54.4377 20.2526 53.7447 20.8605 53.036 21.4716L53.0392 21.4747Z" fill="#D93933"/>
<path d="M42.7637 23.3902C42.9716 22.4105 43.1606 21.4844 43.3685 20.5615C43.4189 20.3284 43.4126 20.1646 43.2236 19.9693C42.8897 19.626 42.8078 19.1692 42.8424 18.6967C42.9212 17.6226 43.7622 16.5768 44.7513 16.3216C45.753 16.0602 46.6224 16.6933 46.6318 17.7265C46.635 18.0793 46.5688 18.4542 46.4428 18.7818C45.942 20.0859 45.4065 21.3773 44.8773 22.6688C44.8427 22.7539 44.7671 22.8641 44.6883 22.8862C44.0646 23.0594 43.4378 23.2169 42.7637 23.3902Z" fill="#D93933"/>
</svg>
